<?xml version="1.0" encoding="utf-8"?>
<!-- Generator: Adobe Illustrator 19.1.0, SVG Export Plug-In . SVG Version: 6.00 Build 0)  -->
<svg version="1.1" id="Layer_1" xmlns="http://www.w3.org/2000/svg" xmlns:xlink="http://www.w3.org/1999/xlink" x="0px" y="0px"
	 viewBox="0 0 500 500" style="enable-background:new 0 0 500 500;" xml:space="preserve">
<style type="text/css">
	.st0{fill:#FFFFFF;}
	
		.st1{clip-path:url(#SVGID_2_);fill:none;stroke:#FFFFFF;stroke-width:1.7359;stroke-linecap:round;stroke-linejoin:round;stroke-miterlimit:10;}
	
		.st2{clip-path:url(#SVGID_4_);fill:none;stroke:#FFFFFF;stroke-width:1.7359;stroke-linecap:round;stroke-linejoin:round;stroke-miterlimit:10;}
	
		.st3{clip-path:url(#SVGID_6_);fill:none;stroke:#FFFFFF;stroke-width:1.7359;stroke-linecap:round;stroke-linejoin:round;stroke-miterlimit:10;}
	
		.st4{clip-path:url(#SVGID_8_);fill:none;stroke:#FFFFFF;stroke-width:1.7359;stroke-linecap:round;stroke-linejoin:round;stroke-miterlimit:10;}
	.st5{fill:none;stroke:#FFFFFF;stroke-width:1.7359;stroke-miterlimit:10;}
	.st6{fill:#D6F700;}
	.st7{fill:none;}
</style>
<g>
	<g>
		<polygon class="st0" points="398.4,364.4 418.3,334.4 422.3,328.4 389.3,328.4 389.3,363.2 389.3,371.2 389.3,372.2 389.3,372.2 
			389.1,372.2 344,391 334,397.4 422.3,397.4 418.1,391 		"/>
	</g>
	<g>
		<polygon class="st0" points="110.9,372.2 110.7,372.2 110.7,371.2 110.7,363.2 110.7,328.4 77.7,328.4 81.7,334.4 101.6,364.4 
			81.9,391 77.7,397.4 169,397.4 		"/>
	</g>
	<g>
		<path class="st0" d="M97.3,74.2l6.1-3.9c1.1-0.7,2.1-1.1,3-1.3c0.9-0.2,1.7-0.1,2.4,0.1c0.7,0.2,1.3,0.5,1.9,1s1,1,1.3,1.5
			c0.3,0.5,0.6,1.2,0.8,1.8c0.2,0.7,0.2,1.4,0.1,2.1c-0.1,0.7-0.4,1.5-1,2.2c-0.5,0.8-1.3,1.5-2.5,2.2l-3.7,2.4l4.8,7.6l-2.4,1.5
			L97.3,74.2z M104.5,80.4l3.1-2c0.5-0.3,0.9-0.6,1.3-1c0.4-0.4,0.7-0.7,0.9-1.2c0.2-0.4,0.3-0.9,0.3-1.4c0-0.5-0.2-1-0.6-1.6
			c-0.4-0.6-0.8-1-1.2-1.2c-0.4-0.2-0.9-0.3-1.4-0.3c-0.5,0-1,0.1-1.5,0.4c-0.5,0.2-1,0.5-1.4,0.8l-3.1,2L104.5,80.4z"/>
		<path class="st0" d="M131.1,80.8c-1.5,0.5-2.9,0.7-4.4,0.6c-1.4-0.1-2.7-0.4-3.9-1c-1.2-0.6-2.3-1.4-3.2-2.5
			c-0.9-1.1-1.7-2.3-2.2-3.8c-0.5-1.4-0.7-2.9-0.6-4.3c0.1-1.4,0.4-2.7,1-4c0.6-1.2,1.4-2.3,2.4-3.3c1.1-1,2.3-1.7,3.8-2.2
			c1.5-0.5,2.9-0.7,4.4-0.6c1.4,0.1,2.7,0.4,3.9,1c1.2,0.6,2.3,1.4,3.2,2.5c0.9,1.1,1.7,2.3,2.2,3.8c0.5,1.4,0.7,2.9,0.6,4.3
			c-0.1,1.4-0.4,2.7-1,4c-0.6,1.2-1.4,2.3-2.4,3.3C133.8,79.5,132.5,80.3,131.1,80.8z M130.2,78.3c1.1-0.4,2-0.9,2.8-1.7
			s1.3-1.5,1.7-2.5c0.4-0.9,0.6-1.9,0.6-3c0-1.1-0.2-2.1-0.5-3.2c-0.4-1.1-0.9-2-1.6-2.8c-0.7-0.8-1.5-1.5-2.3-1.9s-1.8-0.8-2.9-0.9
			c-1-0.1-2.1,0-3.2,0.4c-1.1,0.4-2,0.9-2.8,1.7c-0.8,0.7-1.3,1.5-1.7,2.5s-0.6,1.9-0.6,3c0,1.1,0.2,2.1,0.5,3.2
			c0.4,1.1,0.9,2,1.6,2.8c0.7,0.8,1.5,1.5,2.3,1.9c0.9,0.5,1.8,0.8,2.9,0.9S129.1,78.7,130.2,78.3z"/>
		<path class="st0" d="M144,71.9c0.7,0.6,1.4,1,2.3,1.2c0.8,0.2,1.7,0.2,2.5,0c0.5-0.1,0.9-0.3,1.3-0.5c0.4-0.2,0.8-0.6,1.1-0.9
			c0.3-0.4,0.6-0.8,0.7-1.3s0.2-1,0-1.5c-0.2-0.8-0.6-1.3-1.1-1.6c-0.6-0.3-1.3-0.5-2.1-0.6c-0.8-0.1-1.6-0.2-2.6-0.2
			c-0.9-0.1-1.8-0.2-2.6-0.5c-0.8-0.3-1.6-0.8-2.2-1.4c-0.7-0.6-1.1-1.6-1.5-2.9c-0.1-0.6-0.2-1.2,0-2c0.1-0.7,0.4-1.4,0.8-2.1
			s1-1.3,1.8-1.9s1.8-1,3-1.3c1.1-0.3,2.2-0.3,3.2-0.3c1.1,0.1,2.1,0.5,3.1,1.2l-1.7,2.5c-0.5-0.4-1-0.8-1.7-0.9
			c-0.7-0.2-1.4-0.2-2.2,0c-0.8,0.2-1.4,0.4-1.8,0.7c-0.5,0.3-0.8,0.7-1,1s-0.4,0.8-0.4,1.2c0,0.4,0,0.7,0,1
			c0.2,0.8,0.6,1.4,1.2,1.8c0.6,0.3,1.3,0.6,2.1,0.7c0.8,0.1,1.6,0.2,2.5,0.2c0.9,0,1.8,0.2,2.6,0.4c0.8,0.2,1.6,0.6,2.2,1.2
			s1.1,1.5,1.4,2.7c0.2,1,0.2,1.9,0.1,2.7c-0.2,0.9-0.5,1.6-1,2.3c-0.5,0.7-1.1,1.2-1.9,1.7c-0.8,0.5-1.7,0.8-2.6,1.1
			c-1.3,0.3-2.5,0.4-3.8,0.2c-1.3-0.2-2.3-0.7-3.2-1.5L144,71.9z"/>
		<path class="st0" d="M159.7,68.5c0.6,0.7,1.4,1.1,2.2,1.3s1.7,0.3,2.5,0.1c0.5-0.1,0.9-0.2,1.4-0.5c0.5-0.2,0.8-0.5,1.2-0.9
			s0.6-0.8,0.8-1.2s0.2-1,0.1-1.5c-0.1-0.8-0.5-1.3-1.1-1.7c-0.6-0.3-1.2-0.6-2-0.7c-0.8-0.1-1.6-0.3-2.5-0.4
			c-0.9-0.1-1.8-0.3-2.6-0.7c-0.8-0.3-1.5-0.8-2.2-1.5c-0.6-0.7-1.1-1.7-1.3-3c-0.1-0.6-0.1-1.2,0.1-2c0.1-0.7,0.4-1.4,0.9-2
			c0.5-0.6,1.1-1.2,1.9-1.8c0.8-0.5,1.8-0.9,3-1.1c1.1-0.2,2.2-0.2,3.3-0.1s2.1,0.6,3,1.4l-1.9,2.4c-0.4-0.5-1-0.8-1.7-1
			c-0.7-0.2-1.4-0.3-2.2-0.1c-0.8,0.1-1.4,0.3-1.8,0.6c-0.5,0.3-0.8,0.6-1.1,1c-0.3,0.4-0.4,0.7-0.5,1.1c-0.1,0.4-0.1,0.7,0,1
			c0.1,0.9,0.5,1.5,1.1,1.8c0.6,0.4,1.3,0.6,2,0.8c0.8,0.2,1.6,0.3,2.5,0.4c0.9,0.1,1.8,0.3,2.6,0.5c0.8,0.3,1.5,0.7,2.1,1.3
			c0.6,0.6,1,1.5,1.2,2.7c0.2,1,0.1,1.9-0.1,2.7c-0.2,0.8-0.6,1.6-1.2,2.2c-0.5,0.6-1.2,1.2-2,1.6s-1.7,0.7-2.7,0.9
			c-1.3,0.2-2.6,0.2-3.8,0c-1.2-0.3-2.3-0.8-3.1-1.6L159.7,68.5z"/>
		<path class="st0" d="M172.9,49.8l13.1-1.7l0.3,2.6L176,52.1l0.8,6.1l9.7-1.2l0.3,2.6l-9.7,1.2l0.8,6.5l10.9-1.4l0.3,2.6l-13.7,1.8
			L172.9,49.8z"/>
		<path class="st0" d="M193.1,63.8c0.6,0.7,1.3,1.2,2.1,1.5c0.8,0.3,1.6,0.4,2.5,0.3c0.5,0,0.9-0.2,1.4-0.3c0.5-0.2,0.9-0.4,1.3-0.8
			c0.4-0.3,0.7-0.7,0.9-1.2s0.3-0.9,0.2-1.5c-0.1-0.8-0.4-1.4-0.9-1.7c-0.5-0.4-1.2-0.7-2-0.9c-0.8-0.2-1.6-0.4-2.5-0.6
			c-0.9-0.2-1.7-0.5-2.5-0.9c-0.8-0.4-1.5-1-2-1.7s-0.9-1.8-1-3.1c-0.1-0.6,0-1.2,0.2-1.9c0.2-0.7,0.6-1.4,1.1-2
			c0.5-0.6,1.2-1.1,2-1.6c0.8-0.5,1.9-0.7,3.1-0.9c1.1-0.1,2.2,0,3.2,0.2c1,0.2,2,0.8,2.9,1.6l-2.1,2.3c-0.4-0.5-0.9-0.9-1.6-1.2
			c-0.7-0.3-1.4-0.4-2.2-0.3c-0.8,0.1-1.4,0.2-1.9,0.5c-0.5,0.2-0.9,0.5-1.2,0.9c-0.3,0.3-0.5,0.7-0.6,1.1c-0.1,0.4-0.1,0.7-0.1,1
			c0.1,0.9,0.4,1.5,0.9,1.9c0.5,0.4,1.2,0.7,2,1s1.6,0.4,2.5,0.6c0.9,0.2,1.7,0.4,2.5,0.7c0.8,0.3,1.5,0.8,2,1.5
			c0.6,0.7,0.9,1.6,1,2.8c0.1,1,0,1.9-0.3,2.7c-0.3,0.8-0.7,1.5-1.3,2.1c-0.6,0.6-1.3,1.1-2.1,1.4s-1.8,0.6-2.7,0.7
			c-1.3,0.1-2.6,0-3.8-0.4c-1.2-0.4-2.2-1-3-1.9L193.1,63.8z"/>
		<path class="st0" d="M209.1,62.4c0.5,0.7,1.2,1.2,2,1.5c0.8,0.3,1.6,0.4,2.4,0.4c0.5,0,0.9-0.1,1.4-0.3c0.5-0.2,0.9-0.4,1.3-0.7
			c0.4-0.3,0.7-0.7,0.9-1.1c0.2-0.4,0.3-0.9,0.3-1.5c0-0.8-0.3-1.4-0.9-1.8c-0.5-0.4-1.2-0.7-1.9-0.9c-0.8-0.2-1.6-0.5-2.5-0.7
			c-0.9-0.2-1.7-0.5-2.5-0.9c-0.8-0.4-1.4-1-2-1.8s-0.9-1.8-0.9-3.1c0-0.6,0.1-1.2,0.3-1.9c0.2-0.7,0.6-1.3,1.1-1.9
			c0.5-0.6,1.2-1.1,2.1-1.5c0.9-0.4,1.9-0.7,3.1-0.8c1.1-0.1,2.2,0,3.2,0.3s2,0.8,2.8,1.7l-2.1,2.2c-0.4-0.5-0.9-0.9-1.6-1.2
			c-0.7-0.3-1.4-0.4-2.2-0.4c-0.8,0-1.4,0.2-1.9,0.4c-0.5,0.2-0.9,0.5-1.2,0.9c-0.3,0.3-0.5,0.7-0.6,1.1c-0.1,0.4-0.1,0.7-0.1,1
			c0.1,0.9,0.3,1.5,0.9,2c0.5,0.4,1.2,0.8,1.9,1c0.8,0.2,1.6,0.5,2.5,0.6c0.9,0.2,1.7,0.5,2.5,0.8c0.8,0.4,1.4,0.9,2,1.6
			c0.5,0.7,0.9,1.6,0.9,2.9c0.1,1-0.1,1.9-0.4,2.7s-0.8,1.5-1.4,2.1c-0.6,0.6-1.3,1-2.2,1.4c-0.9,0.3-1.8,0.5-2.8,0.6
			c-1.3,0.1-2.6-0.1-3.8-0.5c-1.2-0.4-2.2-1-2.9-2L209.1,62.4z"/>
		<path class="st0" d="M223.9,45.3l2.8-0.1l0.9,20.5l-2.8,0.1L223.9,45.3z"/>
		<path class="st0" d="M242.1,65.8c-1.6,0-3-0.2-4.3-0.8c-1.3-0.5-2.5-1.3-3.4-2.2c-1-1-1.7-2.1-2.3-3.4c-0.6-1.3-0.8-2.7-0.9-4.2
			c0-1.5,0.2-3,0.7-4.3c0.5-1.3,1.2-2.5,2.1-3.5c0.9-1,2-1.8,3.3-2.3c1.3-0.6,2.7-0.9,4.3-0.9s3,0.2,4.3,0.8
			c1.3,0.5,2.5,1.3,3.4,2.2c1,1,1.7,2.1,2.3,3.4c0.6,1.3,0.8,2.7,0.9,4.2c0,1.5-0.2,3-0.7,4.3c-0.5,1.3-1.2,2.5-2.1,3.5
			c-0.9,1-2,1.8-3.3,2.3C245.1,65.5,243.7,65.8,242.1,65.8z M242.1,63.2c1.2,0,2.2-0.3,3.2-0.7c0.9-0.4,1.7-1,2.4-1.8
			s1.2-1.6,1.5-2.6c0.4-1,0.5-2.1,0.5-3.2s-0.2-2.2-0.6-3.2c-0.4-1-0.9-1.8-1.6-2.6c-0.7-0.7-1.5-1.3-2.5-1.7c-1-0.4-2-0.6-3.2-0.6
			c-1.2,0-2.2,0.3-3.2,0.7c-0.9,0.5-1.7,1-2.4,1.8c-0.7,0.7-1.2,1.6-1.5,2.6c-0.4,1-0.5,2.1-0.5,3.2s0.2,2.2,0.6,3.2
			c0.4,1,0.9,1.8,1.6,2.6c0.7,0.7,1.5,1.3,2.5,1.7C239.8,63,240.9,63.2,242.1,63.2z"/>
		<path class="st0" d="M257.1,44.7l3.7,0.1L271.6,62l0.1,0l0.5-16.9l2.8,0.1l-0.6,20.5l-3.5-0.1l-11-17.2l-0.1,0l-0.5,16.9l-2.8-0.1
			L257.1,44.7z"/>
		<path class="st0" d="M288.3,62.2c0.4,0.8,1,1.4,1.8,1.8c0.8,0.4,1.5,0.7,2.4,0.7c0.5,0,0.9,0,1.4-0.1c0.5-0.1,0.9-0.3,1.4-0.6
			c0.4-0.3,0.8-0.6,1-1c0.3-0.4,0.4-0.9,0.5-1.4c0.1-0.8-0.1-1.4-0.6-1.9c-0.5-0.5-1.1-0.8-1.8-1.2c-0.7-0.3-1.5-0.7-2.4-1
			c-0.9-0.3-1.6-0.7-2.3-1.3c-0.7-0.5-1.3-1.2-1.7-2c-0.4-0.8-0.6-1.9-0.5-3.2c0-0.6,0.2-1.2,0.5-1.9s0.8-1.2,1.4-1.8
			c0.6-0.5,1.4-0.9,2.3-1.2c0.9-0.3,2-0.4,3.2-0.3c1.1,0.1,2.2,0.3,3.2,0.7s1.8,1.1,2.5,2.1l-2.4,1.9c-0.3-0.6-0.8-1-1.4-1.4
			c-0.6-0.4-1.3-0.6-2.1-0.7c-0.8-0.1-1.4,0-1.9,0.2c-0.5,0.2-1,0.4-1.3,0.7c-0.3,0.3-0.6,0.6-0.7,1c-0.2,0.4-0.2,0.7-0.3,1
			c-0.1,0.9,0.1,1.6,0.6,2.1c0.5,0.5,1.1,0.9,1.8,1.3c0.7,0.3,1.5,0.7,2.4,1c0.9,0.3,1.6,0.7,2.4,1.2s1.3,1.1,1.7,1.8
			c0.4,0.7,0.6,1.7,0.5,3c-0.1,1-0.3,1.9-0.8,2.6c-0.4,0.8-1,1.4-1.7,1.9s-1.5,0.9-2.3,1.1c-0.9,0.2-1.8,0.3-2.8,0.2
			c-1.3-0.1-2.5-0.4-3.7-1c-1.1-0.6-2-1.3-2.6-2.3L288.3,62.2z"/>
		<path class="st0" d="M312.6,69.2c-1.6-0.2-3-0.6-4.2-1.3c-1.2-0.7-2.3-1.6-3.1-2.6c-0.8-1.1-1.4-2.3-1.8-3.7
			c-0.4-1.4-0.5-2.8-0.3-4.3c0.2-1.5,0.6-2.9,1.3-4.1c0.7-1.2,1.5-2.3,2.6-3.1s2.2-1.5,3.6-1.9s2.8-0.5,4.4-0.3s3,0.6,4.2,1.3
			c1.2,0.7,2.3,1.6,3.1,2.6s1.4,2.3,1.8,3.7c0.4,1.4,0.5,2.8,0.3,4.3c-0.2,1.5-0.6,2.9-1.3,4.1c-0.7,1.2-1.5,2.3-2.6,3.1
			c-1,0.9-2.2,1.5-3.6,1.9C315.6,69.3,314.1,69.4,312.6,69.2z M312.9,66.6c1.2,0.1,2.3,0,3.2-0.3c1-0.3,1.9-0.8,2.6-1.5
			c0.8-0.7,1.4-1.5,1.9-2.4c0.5-0.9,0.8-2,0.9-3.1c0.1-1.1,0.1-2.2-0.2-3.2c-0.3-1-0.7-1.9-1.3-2.8c-0.6-0.8-1.3-1.5-2.2-2
			c-0.9-0.5-1.9-0.9-3.1-1c-1.2-0.1-2.3,0-3.2,0.3c-1,0.3-1.9,0.8-2.6,1.5c-0.8,0.7-1.4,1.5-1.9,2.4c-0.5,0.9-0.8,2-0.9,3.1
			c-0.1,1.1-0.1,2.2,0.2,3.2c0.3,1,0.7,2,1.3,2.8c0.6,0.8,1.3,1.5,2.2,2C310.7,66.2,311.7,66.5,312.9,66.6z"/>
		<path class="st0" d="M343.7,57.1c-0.4-0.8-1.1-1.5-1.9-2.1s-1.7-0.9-2.6-1.1c-1.1-0.2-2.2-0.2-3.2,0.1c-1,0.3-1.9,0.7-2.7,1.3
			c-0.8,0.6-1.4,1.4-2,2.4c-0.5,0.9-0.9,2-1.1,3.1c-0.2,1.1-0.2,2.1,0,3.1c0.2,1,0.5,1.9,1.1,2.8c0.5,0.8,1.2,1.5,2.1,2.1
			c0.9,0.6,1.9,1,3.1,1.2c1.2,0.2,2.2,0.1,3.2-0.2c1-0.3,1.8-0.9,2.6-1.6l2,2.1c-0.2,0.2-0.5,0.4-1,0.8s-1,0.6-1.7,0.9
			s-1.5,0.5-2.4,0.6c-0.9,0.1-2,0.1-3.1-0.1c-1.6-0.3-3-0.8-4.2-1.7c-1.2-0.8-2.1-1.8-2.9-3c-0.7-1.1-1.2-2.4-1.5-3.7
			c-0.3-1.3-0.3-2.6-0.1-3.9c0.3-1.6,0.8-3,1.5-4.2c0.7-1.2,1.7-2.3,2.7-3.1c1.1-0.8,2.3-1.4,3.7-1.7s2.9-0.3,4.4-0.1
			c1.3,0.2,2.6,0.7,3.8,1.4c1.2,0.7,2.1,1.7,2.8,2.9L343.7,57.1z"/>
		<path class="st0" d="M364.4,61.8c-0.4-0.9-1-1.6-1.7-2.2c-0.8-0.6-1.6-1-2.5-1.3c-1.1-0.3-2.2-0.3-3.2-0.1c-1,0.2-1.9,0.6-2.8,1.2
			s-1.5,1.3-2.1,2.2c-0.6,0.9-1,1.9-1.3,3c-0.3,1.1-0.3,2.1-0.2,3.1c0.1,1,0.4,2,0.8,2.8c0.5,0.9,1.1,1.6,1.9,2.3
			c0.8,0.6,1.8,1.1,3,1.4c1.1,0.3,2.2,0.3,3.2,0s1.9-0.7,2.7-1.4l1.9,2.3c-0.2,0.2-0.5,0.4-1,0.7c-0.5,0.3-1.1,0.6-1.8,0.8
			c-0.7,0.2-1.5,0.4-2.5,0.5c-0.9,0.1-2,0-3.1-0.3c-1.6-0.4-2.9-1-4-2s-2-2-2.6-3.2c-0.6-1.2-1.1-2.5-1.2-3.8
			c-0.2-1.3-0.1-2.6,0.2-3.9c0.4-1.5,1-2.9,1.8-4.1c0.8-1.2,1.8-2.1,3-2.8c1.1-0.7,2.4-1.2,3.8-1.4s2.9-0.1,4.4,0.3
			c1.3,0.3,2.5,0.9,3.7,1.7s2,1.9,2.5,3.1L364.4,61.8z"/>
		<path class="st0" d="M372.9,59.8l12.4,4.6l-0.9,2.4l-9.8-3.6l-2.1,5.7l9.1,3.4l-0.9,2.4l-9.1-3.4l-2.3,6.2l10.3,3.8l-0.9,2.4
			L365.8,79L372.9,59.8z"/>
		<path class="st0" d="M392.2,67.6l6.1,3.8c1.1,0.7,1.9,1.4,2.5,2.2c0.5,0.8,0.9,1.5,1,2.2c0.1,0.7,0.1,1.4-0.1,2.1
			s-0.5,1.3-0.8,1.8c-0.3,0.6-0.8,1-1.3,1.4c-0.5,0.4-1.1,0.7-1.7,0.9s-1.3,0.3-2,0.2c-0.7,0-1.4-0.2-2.1-0.6l0,11l-2.9-1.9
			l0.4-10.4l-2.6-1.6l-4.8,7.7l-2.4-1.5L392.2,67.6z M389.7,76.7l3.1,1.9c0.5,0.3,0.9,0.5,1.4,0.7c0.5,0.2,1,0.3,1.5,0.4
			s0.9-0.1,1.4-0.3c0.4-0.2,0.9-0.6,1.2-1.2c0.4-0.6,0.6-1.1,0.6-1.6s-0.1-1-0.3-1.4c-0.2-0.4-0.5-0.8-0.9-1.2s-0.8-0.7-1.3-1
			l-3.1-1.9L389.7,76.7z"/>
	</g>
	<g>
		<path class="st0" d="M211.1,16.9l-6.6,0.4l-0.2-2.6l16-1l0.2,2.6l-6.6,0.4l1.1,17.9l-2.8,0.2L211.1,16.9z"/>
		<path class="st0" d="M233.8,34.3c-1.6,0-3-0.2-4.3-0.7c-1.3-0.5-2.5-1.2-3.4-2.2c-1-0.9-1.7-2.1-2.3-3.4c-0.6-1.3-0.9-2.7-0.9-4.2
			c0-1.5,0.2-3,0.7-4.3c0.5-1.3,1.2-2.5,2.1-3.5c0.9-1,2-1.8,3.3-2.4s2.7-0.9,4.3-1c1.6,0,3,0.2,4.3,0.7c1.3,0.5,2.5,1.2,3.4,2.2
			c1,0.9,1.7,2.1,2.3,3.4c0.6,1.3,0.9,2.7,0.9,4.2c0,1.5-0.2,3-0.7,4.3c-0.5,1.3-1.2,2.5-2.1,3.5c-0.9,1-2,1.8-3.3,2.4
			S235.4,34.3,233.8,34.3z M233.7,31.7c1.2,0,2.2-0.3,3.2-0.7c0.9-0.5,1.7-1.1,2.4-1.8c0.7-0.8,1.2-1.6,1.5-2.6
			c0.3-1,0.5-2.1,0.5-3.2c0-1.1-0.2-2.2-0.6-3.2c-0.4-1-0.9-1.8-1.6-2.5c-0.7-0.7-1.5-1.3-2.5-1.7c-1-0.4-2-0.6-3.2-0.6
			c-1.2,0-2.2,0.3-3.2,0.7c-0.9,0.5-1.7,1.1-2.4,1.8c-0.7,0.8-1.2,1.6-1.5,2.6c-0.3,1-0.5,2.1-0.5,3.2c0,1.1,0.2,2.2,0.6,3.2
			c0.4,1,0.9,1.8,1.6,2.5c0.7,0.7,1.5,1.3,2.5,1.7C231.5,31.6,232.5,31.8,233.7,31.7z"/>
		<path class="st0" d="M252.7,15.7l-6.6-0.1l0-2.6l16,0.2l0,2.6l-6.6-0.1l-0.2,17.9l-2.8,0L252.7,15.7z"/>
		<path class="st0" d="M269.2,13.4l2.5,0.1l8.1,20.8l-3.2-0.1l-1.9-5.1l-9.8-0.3l-2.2,5l-3.2-0.1L269.2,13.4z M273.8,26.6l-3.5-9.6
			l-0.1,0l-4.2,9.3L273.8,26.6z"/>
		<path class="st0" d="M283.7,14l2.8,0.2l-1.2,17.9l9.4,0.6l-0.2,2.6l-12.2-0.8L283.7,14z"/>
	</g>
	<g>
		<g>
			<g>
				<defs>
					<polygon id="SVGID_1_" points="279.4,196.3 293.6,188.1 305.8,205.7 295.7,225.5 280.4,219.2 					"/>
				</defs>
				<clipPath id="SVGID_2_">
					<use xlink:href="#SVGID_1_"  style="overflow:visible;"/>
				</clipPath>
				<line class="st1" x1="275.4" y1="221.4" x2="294.1" y2="187.8"/>
				<line class="st1" x1="272.9" y1="218.4" x2="291.6" y2="184.9"/>
				<line class="st1" x1="269.2" y1="218.4" x2="287.9" y2="184.9"/>
				<line class="st1" x1="281.9" y1="225.1" x2="300.6" y2="191.6"/>
				<line class="st1" x1="278.6" y1="223.4" x2="297.3" y2="189.8"/>
				<line class="st1" x1="290.7" y1="225.1" x2="305.9" y2="197.6"/>
				<line class="st1" x1="285.2" y1="227.2" x2="303.9" y2="193.6"/>
				<line class="st1" x1="293.9" y1="227.1" x2="309.1" y2="199.6"/>
				<use xlink:href="#SVGID_1_"  style="overflow:visible;fill:none;stroke:#FFFFFF;stroke-miterlimit:10;"/>
			</g>
			<g>
				<defs>
					<path id="SVGID_3_" d="M207.8,197.9l-8.6-7.4c0,0-8.5,20.2,1.2,41.7l7.4-8.4V197.9z"/>
				</defs>
				<clipPath id="SVGID_4_">
					<use xlink:href="#SVGID_3_"  style="overflow:visible;"/>
				</clipPath>
				<line class="st2" x1="214.2" y1="234.7" x2="184.2" y2="210.7"/>
				<line class="st2" x1="211.9" y1="237.6" x2="181.9" y2="213.6"/>
				<line class="st2" x1="219" y1="228.9" x2="189" y2="204.9"/>
				<line class="st2" x1="216.7" y1="231.8" x2="186.7" y2="207.8"/>
				<line class="st2" x1="221.6" y1="225.9" x2="191.6" y2="202"/>
				<line class="st2" x1="221.6" y1="221.2" x2="191.6" y2="197.3"/>
				<line class="st2" x1="221.6" y1="216.5" x2="191.6" y2="192.6"/>
				<line class="st2" x1="221.6" y1="211.8" x2="191.6" y2="187.9"/>
				<line class="st2" x1="221.6" y1="206.3" x2="191.6" y2="182.3"/>
				<use xlink:href="#SVGID_3_"  style="overflow:visible;fill:none;stroke:#FFFFFF;stroke-miterlimit:10;"/>
			</g>
			<g>
				<defs>
					<polygon id="SVGID_5_" points="224.7,232.6 241.6,221 261.5,231.5 256.3,251.8 234.6,252.1 					"/>
				</defs>
				<clipPath id="SVGID_6_">
					<use xlink:href="#SVGID_5_"  style="overflow:visible;"/>
				</clipPath>
				<line class="st3" x1="252" y1="252.2" x2="257.5" y2="246.7"/>
				<line class="st3" x1="240.9" y1="258.5" x2="263.1" y2="236.2"/>
				<line class="st3" x1="238.3" y1="255.8" x2="260.5" y2="233.6"/>
				<line class="st3" x1="235.7" y1="253.2" x2="257.9" y2="231"/>
				<line class="st3" x1="233" y1="250.6" x2="255.3" y2="228.4"/>
				<line class="st3" x1="230.4" y1="248" x2="252.7" y2="225.7"/>
				<line class="st3" x1="227.8" y1="245.4" x2="250.1" y2="223.1"/>
				<line class="st3" x1="225.2" y1="242.7" x2="247.4" y2="220.5"/>
				<line class="st3" x1="222.6" y1="240.1" x2="244.8" y2="217.9"/>
				<line class="st3" x1="220" y1="237.5" x2="242.2" y2="215.3"/>
				<use xlink:href="#SVGID_5_"  style="overflow:visible;fill:none;stroke:#FFFFFF;stroke-miterlimit:10;"/>
			</g>
			<g>
				<defs>
					<polygon id="SVGID_7_" points="224.7,185.2 241.6,196.8 261.5,186.4 256.3,166 234.6,165.7 					"/>
				</defs>
				<clipPath id="SVGID_8_">
					<use xlink:href="#SVGID_7_"  style="overflow:visible;"/>
				</clipPath>
				<line class="st4" x1="257.6" y1="171.1" x2="252.1" y2="165.6"/>
				<line class="st4" x1="263.8" y1="182.2" x2="241.6" y2="160"/>
				<line class="st4" x1="261.2" y1="184.8" x2="238.9" y2="162.6"/>
				<line class="st4" x1="258.6" y1="187.4" x2="236.3" y2="165.2"/>
				<line class="st4" x1="255.9" y1="190.1" x2="233.7" y2="167.8"/>
				<line class="st4" x1="253.3" y1="192.7" x2="231.1" y2="170.4"/>
				<line class="st4" x1="250.7" y1="195.3" x2="228.5" y2="173.1"/>
				<line class="st4" x1="248.1" y1="197.9" x2="225.8" y2="175.7"/>
				<line class="st4" x1="245.5" y1="200.5" x2="223.2" y2="178.3"/>
				<line class="st4" x1="242.9" y1="203.1" x2="220.6" y2="180.9"/>
				<use xlink:href="#SVGID_7_"  style="overflow:visible;fill:none;stroke:#FFFFFF;stroke-miterlimit:10;"/>
			</g>
			<g>
				<g>
					<path class="st0" d="M250.9,155.9c29.6,0,53.6,24.1,53.6,53.6s-24.1,53.6-53.6,53.6s-53.6-24.1-53.6-53.6
						S221.3,155.9,250.9,155.9 M250.9,154.1c-30.6,0-55.3,24.8-55.3,55.3s24.8,55.3,55.3,55.3s55.3-24.8,55.3-55.3
						S281.4,154.1,250.9,154.1L250.9,154.1z"/>
				</g>
			</g>
			<g>
				<path class="st0" d="M292.5,189.7l11.1,16.1l-9.3,18.3l-13.4-5.5l-0.9-21.7L292.5,189.7 M293.1,187.3l-14.8,8.6l1,24l16,6.6
					l10.5-20.7L293.1,187.3L293.1,187.3z"/>
			</g>
			<g>
				<path class="st0" d="M199.9,193.5l6.1,5.2v24.5l-5.1,5.8C194.9,213.5,198.2,198.9,199.9,193.5 M199.1,190.5
					c0,0-8.5,20.2,1.2,41.7l7.4-8.4v-25.9L199.1,190.5L199.1,190.5z"/>
			</g>
			<g>
				<path class="st0" d="M241.8,223l17.7,9.4l-4.5,17.7l-19.3,0.3l-8.7-17.2L241.8,223 M241.6,221l-16.9,11.6l9.9,19.5l21.7-0.3
					l5.2-20.3L241.6,221L241.6,221z"/>
			</g>
			<g>
				<path class="st0" d="M235.6,167.5l19.3,0.3l4.5,17.7l-17.7,9.4l-14.8-10.2L235.6,167.5 M234.6,165.7l-9.9,19.5l16.9,11.6
					l19.8-10.5l-5.2-20.3L234.6,165.7L234.6,165.7z"/>
			</g>
			<line class="st5" x1="292.8" y1="188.9" x2="288.4" y2="170.1"/>
			<line class="st5" x1="295.3" y1="224.6" x2="291.8" y2="245.5"/>
			<line class="st5" x1="281.7" y1="218.8" x2="260.2" y2="232.3"/>
			<line class="st5" x1="280.3" y1="196.7" x2="260.6" y2="185.9"/>
			<line class="st5" x1="255" y1="167.3" x2="270.3" y2="158.8"/>
			<line class="st5" x1="241.6" y1="195.5" x2="241.6" y2="222.3"/>
			<line class="st5" x1="235" y1="251.7" x2="228.9" y2="259"/>
			<line class="st5" x1="226.4" y1="233.5" x2="206.9" y2="224.3"/>
			<line class="st5" x1="226" y1="185.2" x2="206.9" y2="197.9"/>
			<line class="st5" x1="235" y1="166.6" x2="228.4" y2="159.5"/>
			<line class="st5" x1="255.5" y1="250.9" x2="271.4" y2="260.1"/>
		</g>
		<g>
			<path class="st0" d="M303.7,155.9l-12.3,12.3c0.1,0.1,0.3,0.3,0.4,0.4c22.5,22.5,22.5,59.2,0,81.7s-59.2,22.5-81.7,0
				c-0.1-0.1-0.3-0.3-0.4-0.4l-12.3,12.3c29.5,28,76,27.5,104.9-1.4S331.6,185.4,303.7,155.9z"/>
		</g>
		<path class="st0" d="M210.1,168.7c22-22,57.4-22.5,80-1.6l12.3-12.3c-29.5-27.8-75.9-27.2-104.7,1.6s-29.4,75.2-1.6,104.7
			l12.3-12.3C187.6,226.1,188.1,190.6,210.1,168.7z"/>
	</g>
	<path class="st6" d="M241.3,101.4v0.3c2.9-0.3,5.7-0.5,8.7-0.5C247.1,101.3,244.2,101.3,241.3,101.4z"/>
	<path class="st0" d="M168.8,108.4c0.2,0.6,0.4,1.2,0.4,1.9V192c3-14.9,10.1-28.3,20-39.1V105C182,106,175.2,107.1,168.8,108.4z"/>
	<path class="st0" d="M204.5,103.3v36.5c6-3.9,12.4-7.1,19.3-9.4V102C217.3,102.3,210.8,102.8,204.5,103.3z"/>
	<path class="st0" d="M259.2,126.6v-25.3c-3.1-0.1-6.1-0.1-9.2-0.1c-3.2,0-6.3,0.1-9.5,0.1v25.3c3.1-0.4,6.3-0.6,9.5-0.6
		C253.1,126.1,256.2,126.3,259.2,126.6z"/>
	<path class="st0" d="M331.9,108.5c-6.3-1.3-13-2.4-20-3.3v48.9c10.7,12.1,17.9,27.4,20,44.3V108.5z"/>
	<path class="st0" d="M295.2,105.6c0-0.9,0.2-1.6,0.5-2.3c-6-0.6-12.2-1-18.5-1.3v28.7c6.4,2.2,12.4,5.2,18,8.9V105.6z"/>
	<path class="st6" d="M259.3,101.4c-3.1-0.1-6.2-0.1-9.3-0.1c3.2,0,6.3,0.2,9.3,0.5V101.4z"/>
	<line class="st7" x1="151" y1="372.7" x2="109.7" y2="355"/>
	<g>
		<g>
			<path class="st0" d="M261.4,317.3c-1.1-0.6-2.3-1-3.7-1.3c-1.4-0.2-2.8-0.3-4.2-0.3h-9.6V333h9.6c1.4,0,2.8-0.1,4.2-0.3
				c1.4-0.2,2.6-0.6,3.7-1.3c1.1-0.6,2-1.5,2.6-2.6c0.7-1.1,1-2.6,1-4.4c0-1.8-0.3-3.3-1-4.4C263.3,318.8,262.5,317.9,261.4,317.3z"
				/>
		</g>
		<g>
			<path class="st0" d="M112.7,299.3v6.4v57.6v7h274.7v-7v-57.6v-6.4H112.7z M228.9,316.2h-17.3V363h-7.3v-46.8H187v-6.8h41.8V316.2
				z M271.9,329.6c-0.5,1.8-1.4,3.4-2.7,4.9c-1.3,1.4-3,2.6-5.3,3.6c-2.2,0.9-5.1,1.4-8.5,1.4h-11.6V363h-7.3v-53.7h18.9
				c3.4,0,6.3,0.5,8.5,1.4c2.2,0.9,4,2.1,5.3,3.6c1.3,1.4,2.2,3.1,2.7,4.9c0.5,1.8,0.8,3.5,0.8,5.2
				C272.7,326,272.5,327.8,271.9,329.6z M311.5,354.8c-1,2.1-2.3,3.8-4,5.2c-1.7,1.4-3.6,2.5-5.9,3.3c-2.3,0.8-4.7,1.1-7.3,1.1
				c-3.4,0-6.7-0.6-9.8-1.8c-3.1-1.2-5.5-3.1-7.4-5.6l6-5.2c1.3,2,3,3.4,5,4.4c2,0.9,4.2,1.4,6.3,1.4c1.2,0,2.5-0.2,3.7-0.6
				c1.3-0.4,2.4-0.9,3.4-1.7c1-0.8,1.9-1.7,2.5-2.8c0.7-1.1,1-2.4,1-3.9c0-2.1-0.7-3.7-2-4.7c-1.3-1.1-2.9-2-4.9-2.7
				c-1.9-0.7-4.1-1.4-6.4-2.1c-2.3-0.7-4.4-1.6-6.4-2.8c-1.9-1.2-3.6-2.8-4.9-4.9c-1.3-2-2-4.8-2-8.3c0-1.6,0.3-3.2,1-5
				c0.7-1.8,1.8-3.4,3.2-4.9c1.5-1.5,3.3-2.7,5.6-3.7c2.3-1,5.1-1.5,8.3-1.5c2.9,0,5.7,0.4,8.4,1.2c2.7,0.8,5,2.5,7,4.9l-5.9,5.4
				c-0.9-1.4-2.2-2.6-3.9-3.4c-1.7-0.9-3.6-1.3-5.7-1.3c-2,0-3.7,0.3-5,0.8c-1.3,0.5-2.4,1.2-3.2,2c-0.8,0.8-1.4,1.7-1.7,2.7
				c-0.3,1-0.5,1.8-0.5,2.7c0,2.3,0.7,4,2,5.2c1.3,1.2,2.9,2.2,4.9,3c1.9,0.8,4.1,1.4,6.4,2c2.3,0.6,4.4,1.5,6.4,2.5
				c1.9,1.1,3.6,2.6,4.9,4.4c1.3,1.8,2,4.4,2,7.6C313,350.4,312.5,352.7,311.5,354.8z"/>
		</g>
	</g>
	<path class="st0" d="M135.3,297.3c-30.1-88.4-15.4-160.7-15.4-160.7c0-23.4,64.8-35.1,130.2-35.3c65.4,0.2,130.2,12,130.2,35.3
		c0,0,14.7,72.2-15.4,160.7h17.4C415.5,197.1,399,115.7,399,115.7c0-26.7-74.2-40.2-149-40.5c-74.8,0.2-149,13.7-149,40.5
		c0,0-16.5,81.4,16.9,181.5H135.3z"/>
	<path class="st0" d="M171.2,372.2c5.5,8.6,11.4,17.2,18,25.8v-25.8H171.2z"/>
	<path class="st0" d="M189.2,297.3v-32.9c-9.9-10.8-17-24.2-20-39.1v72.1H189.2z"/>
	<path class="st0" d="M204.5,372.2v44.6c6,6.9,12.5,13.8,19.3,20.6v-65.2H204.5z"/>
	<path class="st0" d="M223.9,297.3v-10.4c-6.9-2.3-13.4-5.5-19.3-9.4v19.9H223.9z"/>
	<path class="st0" d="M259.2,297.3v-6.7c-3,0.3-6.1,0.5-9.2,0.5c-3.2,0-6.4-0.2-9.5-0.6v6.7H259.2z"/>
	<path class="st0" d="M240.5,372.2V453c3.1,2.7,6.2,5.5,9.5,8.2c3.1-2.6,6.2-5.3,9.2-7.9v-81.1H240.5z"/>
	<path class="st0" d="M277.2,372.2v64.2c6.4-6.4,12.4-12.8,18-19.2v-44.9H277.2z"/>
	<path class="st0" d="M295.2,297.3v-19.7c-5.6,3.7-11.6,6.7-18,8.9v10.8H295.2z"/>
	<path class="st0" d="M331.9,297.3v-78.4c-2.1,16.9-9.3,32.2-20,44.3v34.1H331.9z"/>
	<path class="st0" d="M311.9,372.2v24.4c6.1-8.1,11.8-16.3,16.9-24.4H311.9z"/>
	<g>
		<path class="st0" d="M364.7,297.3c1.1-3.3,2.2-6.5,3.2-9.8v-167c-5.3-3.1-12.1-5.8-20-8.1v184.8H364.7z"/>
	</g>
	<g>
		<path class="st0" d="M152.5,297.3V112.3c-7.6,2.2-14.1,4.7-19.3,7.6v171c0.7,2.1,1.4,4.2,2.1,6.3H152.5z"/>
	</g>
	<path class="st0" d="M328.8,372.2c-19.2,30.2-44.8,60.6-78.8,89c-34.1-28.5-59.7-58.8-78.8-89h-19.4c22.7,38.9,54.3,78.3,98.2,115
		c43.9-36.7,75.6-76.1,98.2-115H328.8z"/>
</g>
</svg>
